<svg xmlns="http://www.w3.org/2000/svg" xmlns:xlink="http://www.w3.org/1999/xlink" width="1920" height="439" viewBox="0 0 1920 439">
  <defs>
    <style>
      .cls-1 {
        clip-path: url(#clip-Web_1920_1);
      }

      .cls-2 {
        fill: #707070;
      }

      .cls-3 {
        fill: #fff;
      }
    </style>
    <clipPath id="clip-Web_1920_1">
      <rect width="1920" height="439"/>
    </clipPath>
  </defs>
  <g id="Web_1920_1" data-name="Web 1920 – 1" class="cls-1">
    <rect class="cls-3" width="1920" height="439"/>
    <path id="Caminho_1" data-name="Caminho 1" class="cls-2" d="M12.352-136.065H78.165q22.581,0,35.126,11.484T125.836-92.64q0,20.265-12.641,31.845t-35.03,11.58h-30.3V0H12.352ZM73.34-75.849q9.843,0,14.572-4.053T92.64-92.447q0-8.492-4.729-12.642T73.34-109.238H47.864v33.389ZM224.266-40.916H165.594q1.544,9.264,6.755,13.317t14.861,4.053A45.486,45.486,0,0,0,201.3-25.862a45.45,45.45,0,0,0,12.738-6.369L222.722-9.65a56.04,56.04,0,0,1-17.177,8.2,69.956,69.956,0,0,1-20.072,2.992q-16.405,0-28.371-5.983a42.911,42.911,0,0,1-18.432-17.177q-6.465-11.194-6.465-26.248a53.074,53.074,0,0,1,6.079-25.572A43.77,43.77,0,0,1,155.269-91a48.454,48.454,0,0,1,24.607-6.272q20.458,0,32.424,13.028t11.966,35.608Zm-43.425-33.2q-13.7,0-15.633,16.984h30.3Q194.351-74.112,180.841-74.112Zm132.205,4.825-18.721,1.93q-11.194,1.158-15.633,5.983t-4.439,13.7V0H239.9V-94.956h32.617v16.4a25.388,25.388,0,0,1,10.808-13.22q7.527-4.535,18.335-5.115l9.457-.772ZM358.015,1.544a104.123,104.123,0,0,1-25.283-2.9,57.677,57.677,0,0,1-19.493-8.492L321.924-33.2a68.663,68.663,0,0,0,17.563,8.01A64.979,64.979,0,0,0,358.4-22.195q5.6,0,8.685-1.641t3.088-4.535a4.275,4.275,0,0,0-2.219-3.86q-2.22-1.351-8.975-2.9L343.733-38.6q-14.475-3.281-20.844-9.65T316.52-66.392a25.765,25.765,0,0,1,5.4-16.115,34.594,34.594,0,0,1,15.151-10.9,59.621,59.621,0,0,1,22.1-3.86,71.58,71.58,0,0,1,20.362,2.992,69.748,69.748,0,0,1,18.431,8.4L389.088-63.5a72.766,72.766,0,0,0-15.536-7.43,46.754,46.754,0,0,0-14.764-2.606q-5.6,0-8.685,1.737a5.474,5.474,0,0,0-3.088,5.018,3.706,3.706,0,0,0,1.93,3.184,23.455,23.455,0,0,0,6.755,2.413l16.019,3.667q15.054,3.281,21.809,10.132t6.755,18.625q0,14.089-11.29,22.195T358.015,1.544Zm104.22,0q-15.633,0-27.5-6.08A43.637,43.637,0,0,1,416.4-21.809Q409.932-33,409.932-48.057T416.4-74.209a43.329,43.329,0,0,1,18.238-17.08q11.773-5.983,27.6-5.983t27.6,5.983a43.329,43.329,0,0,1,18.238,17.08q6.466,11.1,6.466,26.152t-6.466,26.248A43.769,43.769,0,0,1,489.834-4.536Q478.061,1.544,462.235,1.544Zm0-25.669q18.335,0,18.335-23.932T462.235-71.989q-18.335,0-18.335,23.932T462.235-24.125ZM594.054-97.272q16.984,0,25.283,10.132t8.3,30.783V0H593.282V-54.812q0-8.492-2.991-12.352t-8.974-3.86q-7.72,0-12.256,4.921t-4.535,13.221V0H530.171V-94.956H563.56v12.738a32.914,32.914,0,0,1,12.931-11.194A39.521,39.521,0,0,1,594.054-97.272ZM824.882-76.814V-8.685a104.1,104.1,0,0,1-24.125,7.72,140.384,140.384,0,0,1-27.6,2.7q-22.2,0-38.5-8.4a58.393,58.393,0,0,1-24.994-24.125q-8.685-15.73-8.685-37.346,0-21.037,8.685-36.863a59.368,59.368,0,0,1,24.608-24.318q15.922-8.492,37.345-8.492a97.721,97.721,0,0,1,27.888,3.86q13.027,3.86,21.133,10.615l-11,25.09a73.473,73.473,0,0,0-18.142-8.878,62.035,62.035,0,0,0-18.528-2.7q-18.335,0-27.31,10.229t-8.974,31.459q0,21.809,9.36,32.328T774.7-25.283a87.864,87.864,0,0,0,18.335-1.93V-52.5H769.105V-76.814Zm108.466,35.9H874.676q1.544,9.264,6.755,13.317t14.861,4.053a45.486,45.486,0,0,0,14.089-2.316,45.451,45.451,0,0,0,12.738-6.369L931.8-9.65a56.04,56.04,0,0,1-17.177,8.2,69.956,69.956,0,0,1-20.072,2.992q-16.4,0-28.371-5.983a42.911,42.911,0,0,1-18.432-17.177q-6.466-11.194-6.466-26.248a53.074,53.074,0,0,1,6.08-25.572A43.77,43.77,0,0,1,864.351-91a48.454,48.454,0,0,1,24.607-6.272q20.458,0,32.424,13.028t11.966,35.608Zm-43.425-33.2q-13.7,0-15.633,16.984h30.3Q903.433-74.112,889.923-74.112Zm122.941-23.16q16.984,0,25.283,10.132t8.3,30.783V0h-34.354V-54.812q0-8.492-2.992-12.352t-8.975-3.86q-7.72,0-12.255,4.921t-4.535,13.221V0H948.981V-94.956H982.37v12.738A32.914,32.914,0,0,1,995.3-93.412,39.521,39.521,0,0,1,1012.864-97.272Zm140.5,56.356H1094.7q1.544,9.264,6.755,13.317t14.861,4.053a45.486,45.486,0,0,0,14.089-2.316,45.45,45.45,0,0,0,12.738-6.369l8.685,22.581a56.039,56.039,0,0,1-17.177,8.2,69.956,69.956,0,0,1-20.072,2.992q-16.4,0-28.371-5.983a42.911,42.911,0,0,1-18.432-17.177q-6.465-11.194-6.465-26.248a53.075,53.075,0,0,1,6.079-25.572A43.77,43.77,0,0,1,1084.37-91a48.454,48.454,0,0,1,24.608-6.272q20.458,0,32.424,13.028t11.966,35.608Zm-43.425-33.2q-13.7,0-15.633,16.984h30.3Q1123.453-74.112,1109.943-74.112Zm132.2,4.825-18.721,1.93q-11.194,1.158-15.633,5.983t-4.439,13.7V0H1169V-94.956h32.617v16.4a25.388,25.388,0,0,1,10.808-13.22q7.527-4.535,18.335-5.115l9.457-.772Zm51.338-27.985q22.388,0,33.1,10.326T1337.3-54.812V0h-32.231V-13.317a21.85,21.85,0,0,1-9.071,10.9,28.32,28.32,0,0,1-15.247,3.957,39.151,39.151,0,0,1-17.756-3.957,30.886,30.886,0,0,1-12.448-11,28.776,28.776,0,0,1-4.536-15.923q0-10.229,5.307-16.308t16.887-8.782q11.58-2.7,31.266-2.7h5.211v-2.316q0-7.141-3.281-9.94t-11.58-2.8a53.07,53.07,0,0,0-15.15,2.605,87.419,87.419,0,0,0-16.116,6.659L1249.868-85.5a81.359,81.359,0,0,1,20.747-8.4A87.882,87.882,0,0,1,1293.486-97.272Zm-4.632,75.849a14.643,14.643,0,0,0,11.387-4.921q4.439-4.921,4.439-12.642V-41.3h-3.088q-12.352,0-17.563,2.219t-5.211,7.431a10.123,10.123,0,0,0,2.8,7.334A9.619,9.619,0,0,0,1288.854-21.423Zm124.485-1.737a86.318,86.318,0,0,0,9.457-.579L1421.059.772a96.489,96.489,0,0,1-11.966.772q-23.16,0-33.678-9.747t-10.519-30.2V-69.673H1347.14V-94.956H1364.9v-27.6h34.354v27.6h22.774v25.283H1399.25v31.459Q1399.25-23.16,1413.339-23.16Zm69.287,24.7q-15.633,0-27.5-6.08a43.637,43.637,0,0,1-18.335-17.274q-6.465-11.194-6.465-26.248t6.465-26.152a43.329,43.329,0,0,1,18.239-17.08q11.773-5.983,27.6-5.983t27.6,5.983a43.33,43.33,0,0,1,18.239,17.08q6.465,11.1,6.465,26.152t-6.465,26.248a43.77,43.77,0,0,1-18.239,17.274Q1498.452,1.544,1482.626,1.544Zm0-25.669q18.335,0,18.335-23.932t-18.335-23.932q-18.335,0-18.335,23.932T1482.626-24.125Zm141.083-45.162-18.721,1.93q-11.194,1.158-15.633,5.983t-4.439,13.7V0h-34.354V-94.956h32.617v16.4a25.388,25.388,0,0,1,10.808-13.22q7.527-4.535,18.335-5.115l9.457-.772Z" transform="translate(148 283)"/>
    <path id="Caminho_2" data-name="Caminho 2" class="cls-2" d="M11.286-18.848A7.859,7.859,0,0,1,15.58-17.67a7.834,7.834,0,0,1,2.888,3.306,11.343,11.343,0,0,1,1.026,4.978,11.816,11.816,0,0,1-1.026,5.073A7.9,7.9,0,0,1,15.58-.931a7.766,7.766,0,0,1-4.294,1.2A7.382,7.382,0,0,1,7.315-.76,6.328,6.328,0,0,1,4.826-3.724V0H3.23V-26.79h1.6V-14.9a6.354,6.354,0,0,1,2.489-2.926A7.382,7.382,0,0,1,11.286-18.848Zm0,17.556a5.755,5.755,0,0,0,4.75-2.128,9.294,9.294,0,0,0,1.71-5.966,8.92,8.92,0,0,0-1.71-5.833,5.865,5.865,0,0,0-4.788-2.071A5.732,5.732,0,0,0,6.5-15.2,9.211,9.211,0,0,0,4.826-9.31,9.278,9.278,0,0,0,6.5-3.382,5.775,5.775,0,0,0,11.286-1.292Zm26.676-17.1h1.672L28.842,6.84H27.208L30.058.19l-7.9-18.582h1.71l7.03,16.986ZM61.522.3a15.818,15.818,0,0,1-5.51-.874,12.009,12.009,0,0,1-4.256-2.736l.8-1.33a12.573,12.573,0,0,0,4.028,2.622,14.063,14.063,0,0,0,4.94.76,9.073,9.073,0,0,0,5.586-1.5A5.05,5.05,0,0,0,69.084-7.03,3.5,3.5,0,0,0,68.1-9.614a6.421,6.421,0,0,0-2.432-1.5A37.857,37.857,0,0,0,61.788-12.2q-3.268-.8-5.035-1.425a8,8,0,0,1-3.154-2.09,5.536,5.536,0,0,1-1.387-3.971A6.862,6.862,0,0,1,53.333-23.6a7.209,7.209,0,0,1,3.23-2.584,12.316,12.316,0,0,1,4.921-.912,11.985,11.985,0,0,1,9.006,3.61l-.8,1.33a12.711,12.711,0,0,0-3.857-2.584,11.424,11.424,0,0,0-4.351-.8,9,9,0,0,0-5.624,1.558,5.208,5.208,0,0,0-2.014,4.37,4.005,4.005,0,0,0,1.748,3.591,16.171,16.171,0,0,0,4.9,1.957l1.634.38a35.971,35.971,0,0,1,4.446,1.235,7.169,7.169,0,0,1,2.907,1.957,5.139,5.139,0,0,1,1.2,3.572,6.412,6.412,0,0,1-1.14,3.762A7.473,7.473,0,0,1,66.329-.608,11.835,11.835,0,0,1,61.522.3ZM82.878-18.848q6.308,0,6.308,6.8V0H87.552V-3.382a6.176,6.176,0,0,1-2.413,2.7,6.822,6.822,0,0,1-3.591.95,7.155,7.155,0,0,1-3.211-.722,5.844,5.844,0,0,1-2.318-2,4.905,4.905,0,0,1-.855-2.793,4.381,4.381,0,0,1,1.083-3.173,6.713,6.713,0,0,1,3.572-1.615,37.882,37.882,0,0,1,6.973-.494h.76v-1.6a5.959,5.959,0,0,0-1.064-3.933,4.234,4.234,0,0,0-3.382-1.235,10.848,10.848,0,0,0-3.287.475,12.993,12.993,0,0,0-3.135,1.539l-.76-1.368a11.3,11.3,0,0,1,3.249-1.615A12.108,12.108,0,0,1,82.878-18.848ZM81.548-1.33a5.887,5.887,0,0,0,3.078-.817,5.767,5.767,0,0,0,2.147-2.261,6.772,6.772,0,0,0,.779-3.268V-9.044H86.83a42.8,42.8,0,0,0-6.08.323,5.593,5.593,0,0,0-2.926,1.1,2.991,2.991,0,0,0-.836,2.3A3.628,3.628,0,0,0,78.28-2.451,4.807,4.807,0,0,0,81.548-1.33ZM114.8-18.848q6.08,0,6.08,6.992V0h-1.6V-11.7a6.906,6.906,0,0,0-1.064-4.275,4.045,4.045,0,0,0-3.382-1.349,5.369,5.369,0,0,0-4.237,1.786,7.03,7.03,0,0,0-1.577,4.826V0h-1.6V-11.7a6.906,6.906,0,0,0-1.064-4.275,4.045,4.045,0,0,0-3.382-1.349,5.369,5.369,0,0,0-4.237,1.786,7.03,7.03,0,0,0-1.577,4.826V0h-1.6V-18.392h1.558v3.23A5.842,5.842,0,0,1,99.389-17.9a6.5,6.5,0,0,1,3.553-.95q4.408,0,5.662,3.686a6.08,6.08,0,0,1,2.451-2.7A7.154,7.154,0,0,1,114.8-18.848Zm26.714.456V0h-1.558V-3.458A6.344,6.344,0,0,1,137.427-.7a7.262,7.262,0,0,1-3.743.969,6.279,6.279,0,0,1-4.845-1.786,7.463,7.463,0,0,1-1.653-5.244V-18.392h1.6V-6.916A6.42,6.42,0,0,0,129.96-2.66a4.558,4.558,0,0,0,3.648,1.368A6.048,6.048,0,0,0,138.187-3.1,6.659,6.659,0,0,0,139.916-7.9V-18.392Zm21.242,9.348H148.466a8.588,8.588,0,0,0,1.881,5.738A6.555,6.555,0,0,0,155.5-1.292a8.968,8.968,0,0,0,3.211-.57,10.35,10.35,0,0,0,2.983-1.824l.76,1.368a8.443,8.443,0,0,1-3.04,1.881,10.78,10.78,0,0,1-3.838.7,8.429,8.429,0,0,1-6.479-2.546,9.847,9.847,0,0,1-2.375-6.992,11.242,11.242,0,0,1,1.064-5.016,7.993,7.993,0,0,1,3-3.363,8.286,8.286,0,0,1,4.446-1.2,6.894,6.894,0,0,1,5.548,2.318,9.717,9.717,0,0,1,1.976,6.5Zm-7.524-8.322a6.221,6.221,0,0,0-4.655,1.805,8.021,8.021,0,0,0-2.071,5.035h12.73A7.716,7.716,0,0,0,159.6-15.6,5.52,5.52,0,0,0,155.23-17.366ZM167.884,0V-26.79h1.6V0Zm37.734,0H203.87l-4.522-8.588a5.822,5.822,0,0,0-2.28-2.584,7.82,7.82,0,0,0-3.61-.684h-6.194V0h-1.558V-26.79h10.336a9.747,9.747,0,0,1,6.4,1.881,6.781,6.781,0,0,1,2.261,5.529,6.766,6.766,0,0,1-1.843,4.978,8.415,8.415,0,0,1-5.225,2.242,4.257,4.257,0,0,1,1.691,1.026A8.54,8.54,0,0,1,200.754-9.2ZM196.08-13.376q6.954,0,6.954-6.042a5.507,5.507,0,0,0-1.71-4.427q-1.71-1.463-5.244-1.463H187.3v11.932ZM225.8-9.044H211.508a8.588,8.588,0,0,0,1.881,5.738,6.555,6.555,0,0,0,5.149,2.014,8.968,8.968,0,0,0,3.211-.57,10.35,10.35,0,0,0,2.983-1.824l.76,1.368a8.443,8.443,0,0,1-3.04,1.881,10.78,10.78,0,0,1-3.838.7,8.429,8.429,0,0,1-6.479-2.546,9.847,9.847,0,0,1-2.375-6.992,11.242,11.242,0,0,1,1.064-5.016,7.993,7.993,0,0,1,3-3.363,8.286,8.286,0,0,1,4.446-1.2,6.894,6.894,0,0,1,5.548,2.318,9.717,9.717,0,0,1,1.976,6.5Zm-7.524-8.322a6.221,6.221,0,0,0-4.655,1.805,8.021,8.021,0,0,0-2.071,5.035h12.73a7.716,7.716,0,0,0-1.634-5.073A5.52,5.52,0,0,0,218.272-17.366ZM230.926,0V-18.392h1.6V0Zm-.418-25.916h2.432v2.394h-2.432ZM244.72.266a9.537,9.537,0,0,1-6.878-2.508l.76-1.33a9.44,9.44,0,0,0,2.869,1.748,10.074,10.074,0,0,0,3.363.494,6.633,6.633,0,0,0,3.724-.874,2.811,2.811,0,0,0,1.292-2.47,2.8,2.8,0,0,0-.836-2.128,5.952,5.952,0,0,0-2.7-1.254L243.2-8.778a6.75,6.75,0,0,1-3.439-1.805,4.211,4.211,0,0,1-1.273-3.021,4.648,4.648,0,0,1,1.786-3.8,7.456,7.456,0,0,1,4.826-1.444,9.631,9.631,0,0,1,3.572.646,6.738,6.738,0,0,1,2.66,1.824l-.76,1.368a8.493,8.493,0,0,0-2.546-1.691,7.572,7.572,0,0,0-2.926-.551,5.943,5.943,0,0,0-3.515.912,2.918,2.918,0,0,0-1.273,2.508,3.088,3.088,0,0,0,.779,2.223,5,5,0,0,0,2.451,1.235l3.154.76q4.9,1.14,4.9,4.826a4.354,4.354,0,0,1-1.862,3.667A8.211,8.211,0,0,1,244.72.266Z" transform="translate(1518 352)"/>
  </g>
</svg>
